<svg xmlns="http://www.w3.org/2000/svg" width="540" height="180" viewBox="0 0 540 180"><defs><style>.skin{fill:#a66239}.hair{fill:#201712}.shirt{fill:#123f8f}.shorts{fill:#102b67}.boot{fill:#d7ff55}</style></defs><g transform="translate(0 0)"><ellipse cx="90" cy="168" rx="42" ry="6" fill="#000" opacity=".15"/><circle class="skin" cx="90" cy="30" r="16"/><path class="hair" d="M74 23Q90 8 106 23l-4-8Q89 5 77 15z"/><path class="shirt" d="M65 48Q90 39 115 48L110 108H70Z"/><rect class="skin" x="49" y="54" width="15" height="58" rx="8" transform="rotate(12 49 54)"/><rect class="skin" x="116" y="54" width="15" height="58" rx="8" transform="rotate(-12 116 54)"/><rect class="shorts" x="70" y="103" width="40" height="24" rx="8"/><rect class="shorts" x="73" y="121" width="15" height="43" rx="7"/><rect class="shorts" x="94" y="121" width="15" height="43" rx="7"/><rect class="boot" x="68" y="155" width="26" height="9" rx="5"/><rect class="boot" x="89" y="155" width="26" height="9" rx="5"/><text x="90" y="82" text-anchor="middle" fill="#fff" font-size="28" font-weight="900">10</text></g><g transform="translate(180 0)"><ellipse cx="92" cy="168" rx="46" ry="6" fill="#000" opacity=".15"/><circle class="skin" cx="84" cy="30" r="16"/><path class="hair" d="M68 23Q84 8 100 23l-4-8Q83 5 71 15z"/><path class="shirt" d="M59 48Q84 39 109 48L104 108H64Z" transform="rotate(-5 84 78)"/><rect class="skin" x="43" y="55" width="15" height="58" rx="8" transform="rotate(25 43 55)"/><rect class="skin" x="108" y="54" width="15" height="58" rx="8" transform="rotate(-28 108 54)"/><rect class="shorts" x="64" y="103" width="40" height="24" rx="8" transform="rotate(-6 84 115)"/><rect class="shorts" x="63" y="121" width="15" height="45" rx="7" transform="rotate(18 63 121)"/><rect class="shorts" x="91" y="116" width="15" height="52" rx="7" transform="rotate(-34 91 116)"/><rect class="boot" x="53" y="152" width="27" height="9" rx="5" transform="rotate(12 53 152)"/><rect class="boot" x="109" y="145" width="29" height="9" rx="5" transform="rotate(-18 109 145)"/><text x="84" y="82" text-anchor="middle" fill="#fff" font-size="28" font-weight="900">10</text></g><g transform="translate(360 0)"><ellipse cx="96" cy="166" rx="48" ry="6" fill="#000" opacity=".15"/><circle class="skin" cx="82" cy="31" r="16"/><path class="hair" d="M66 24Q82 9 98 24l-4-8Q81 6 69 16z"/><path class="shirt" d="M57 49Q82 40 107 49L102 108H62Z" transform="rotate(-8 82 78)"/><rect class="skin" x="41" y="55" width="15" height="58" rx="8" transform="rotate(32 41 55)"/><rect class="skin" x="106" y="54" width="15" height="58" rx="8" transform="rotate(-34 106 54)"/><rect class="shorts" x="62" y="103" width="40" height="24" rx="8" transform="rotate(-8 82 115)"/><rect class="shorts" x="59" y="121" width="15" height="44" rx="7" transform="rotate(28 59 121)"/><rect class="shorts" x="88" y="116" width="15" height="55" rx="7" transform="rotate(-58 88 116)"/><rect class="boot" x="47" y="151" width="28" height="9" rx="5" transform="rotate(17 47 151)"/><rect class="boot" x="126" y="121" width="31" height="10" rx="5" transform="rotate(-18 126 121)"/><text x="82" y="82" text-anchor="middle" fill="#fff" font-size="28" font-weight="900">10</text></g></svg>